<?xml version="1.0" encoding="iso-8859-1"?>
<!-- Generator: Adobe Illustrator 19.0.0, SVG Export Plug-In . SVG Version: 6.00 Build 0)  -->
<svg version="1.1" id="Capa_1" xmlns="http://www.w3.org/2000/svg" xmlns:xlink="http://www.w3.org/1999/xlink" x="0px" y="0px"
	 viewBox="0 0 512 512" style="enable-background:new 0 0 512 512;" xml:space="preserve">
<path style="fill:#CAE8F9;" d="M437,0H227c-8.401,0-15,6.599-15,15v92c0,8.399,6.599,15,15,15h210c8.401,0,15-6.601,15-15V15
	C452,6.599,445.401,0,437,0z"/>
<path style="fill:#B7E0F6;" d="M452,15v92c0,8.399-6.599,15-15,15H332V0h105C445.401,0,452,6.599,452,15z"/>
<path style="fill:#1689FC;" d="M512,137c0-24.901-20.098-45-45-45H45c-24.902,0-45,20.099-45,45v300c0,24.899,20.098,45,45,45h422
	c24.902,0,45-20.101,45-45V137z"/>
<path style="fill:#136EF1;" d="M467,92c24.902,0,45,20.099,45,45v300c0,24.899-20.098,45-45,45H332V92H467z"/>
<g>
	<path style="fill:#CAE8F9;" d="M257,422h-30c-19.773,0-19.854-30,0-30h30C276.773,392,276.854,422,257,422z"/>
	<path style="fill:#CAE8F9;" d="M347,422h-30c-19.797,0-19.797-30,0-30h30C366.797,392,366.797,422,347,422z"/>
</g>
<path style="fill:#B7E0F6;" d="M437,422h-30c-19.773,0-19.854-30,0-30h30C456.773,392,456.854,422,437,422z"/>
<g>
	<path style="fill:#CAE8F9;" d="M257,362h-30c-19.773,0-19.854-30,0-30h30C276.773,332,276.854,362,257,362z"/>
	<path style="fill:#CAE8F9;" d="M347,362h-30c-19.797,0-19.797-30,0-30h30C366.797,332,366.797,362,347,362z"/>
</g>
<path style="fill:#B7E0F6;" d="M437,362h-30c-19.773,0-19.854-30,0-30h30C456.773,332,456.854,362,437,362z"/>
<g>
	<path style="fill:#CAE8F9;" d="M257,302h-30c-19.773,0-19.854-30,0-30h30C276.773,272,276.854,302,257,302z"/>
	<path style="fill:#CAE8F9;" d="M347,302h-30c-19.797,0-19.797-30,0-30h30C366.797,272,366.797,302,347,302z"/>
</g>
<path style="fill:#B7E0F6;" d="M437,302h-30c-19.773,0-19.854-30,0-30h30C456.773,272,456.854,302,437,302z"/>
<path style="fill:#FEDB41;" d="M452,167c0-8.401-6.599-15-15-15H227c-8.401,0-15,6.599-15,15v60c0,8.399,6.599,15,15,15h210
	c8.401,0,15-6.601,15-15V167z"/>
<path style="fill:#1DE8F1;" d="M137,62h-32c-24.902,0-45,20.099-45,45v360c0,24.899,20.098,45,45,45h32c24.902,0,45-20.101,45-45
	V107C182,82.099,161.902,62,137,62z"/>
<g>
	<path style="fill:#B7E0F6;" d="M347,422h-15v-30h15C366.797,392,366.797,422,347,422z"/>
	<path style="fill:#B7E0F6;" d="M347,362h-15v-30h15C366.797,332,366.797,362,347,362z"/>
	<path style="fill:#B7E0F6;" d="M347,302h-15v-30h15C366.797,272,366.797,302,347,302z"/>
</g>
<path style="fill:#FFCC33;" d="M452,167v60c0,8.399-6.599,15-15,15H332v-90h105C445.401,152,452,158.599,452,167z"/>
<path style="fill:#1BD9DE;" d="M182,107v360c0,24.899-20.098,45-45,45h-15V62h15C161.902,62,182,82.099,182,107z"/>
<g>
</g>
<g>
</g>
<g>
</g>
<g>
</g>
<g>
</g>
<g>
</g>
<g>
</g>
<g>
</g>
<g>
</g>
<g>
</g>
<g>
</g>
<g>
</g>
<g>
</g>
<g>
</g>
<g>
</g>
</svg>
