<?xml version="1.0" encoding="iso-8859-1"?>
<!-- Generator: Adobe Illustrator 19.0.0, SVG Export Plug-In . SVG Version: 6.00 Build 0)  -->
<svg version="1.1" id="Capa_1" xmlns="http://www.w3.org/2000/svg" xmlns:xlink="http://www.w3.org/1999/xlink" x="0px" y="0px"
	 viewBox="0 0 512 512" style="enable-background:new 0 0 512 512;" xml:space="preserve">
<path style="fill:#1DE8F1;" d="M497,256c0,132.299-109.703,240-242,240S15,388.299,15,256S122.703,16,255,16S497,123.701,497,256z"
	/>
<path style="fill:#1BD9DE;" d="M497,256c0,132.299-109.703,240-242,240V16C387.297,16,497,123.701,497,256z"/>
<path style="fill:#17ACE8;" d="M255,1C114.302,1,0,115.3,0,256s114.302,255,255,255s257-114.3,257-255S395.698,1,255,1z
	 M468.201,179.5c-23.101-18.001-54.602-33.001-91.501-43.2c-10.199-37.2-27.199-68.401-45.198-91.8
	C393.9,67.301,445.701,116.8,468.201,179.5z M270,33.701c28.799,9.3,56.302,45,72.8,95.099c-22.2-4.2-47.897-6.601-72.8-7.5V33.701z
	 M178.499,44.5c-11.997,15.599-22.8,35.099-31.798,57.9c-7.2,18.6,20.402,29.399,27.902,11.1C191.4,70.3,215.098,42.1,240,33.701
	v87.9c-21.599,0.599-42.598,2.399-62.999,5.7c-19.501,3.3-15,32.999,4.801,29.7c18.896-3.3,38.401-4.801,58.198-5.4V241h-89.399
	c0.901-24.901,3.3-49.501,8.101-72.599c2.098-10.501-7.5-19.801-18.003-17.701c-2.098-8.399-10.796-12.9-18.896-10.499
	c-32.102,10.199-58.202,24-78.303,39.899C65.999,117.1,115.8,67.301,178.499,44.5z M128.101,169.9c-4.2,22.8-6.599,46.8-7.5,71.1
	H32.703C42.001,213.1,76.802,187,128.101,169.9z M120.3,271c0.901,24.901,3.3,48.6,7.5,70.8C77.702,325.3,42,299.801,32.702,271
	H120.3z M43.499,332.5c23.401,18.001,54.602,33.001,91.802,43.2c10.199,36.899,25.199,68.401,43.198,91.5
	C115.8,444.699,66.299,394.9,43.499,332.5z M331.501,467.5c17.999-23.399,34.999-54.6,45.198-91.8
	c37.2-10.199,68.401-25.199,91.802-43.2C445.701,394.9,393.9,444.699,331.501,467.5z M384.2,341.8
	c3.3-17.399,5.698-35.7,6.899-54.899c1.201-19.501-28.799-22.202-30-1.802c-1.501,23.101-4.797,45.3-9.302,65.7
	c-20.398,4.501-44.598,7.8-67.698,9.3c-19.197,1.201-18.3,30,0.901,30h0.901c19.197-1.199,39.5-3.6,56.899-6.899
	c-16.498,50.4-44.001,85.8-72.8,95.099V406c0-9.901-7.5-15-15-15s-15,5.099-15,15v72.299c-29.099-9.3-54.602-45-70.8-95.099
	c17.399,3.3,35.702,5.7,54.899,6.899H225c19.2,0,20.098-28.799,0.901-30c-23.101-1.5-45-4.799-65.698-9.3
	c-5.405-24.598-9.001-51.599-9.902-79.799H240v75c0,9.901,7.5,15,15,15s15-5.099,15-15v-75h77c19.797,0,19.797-30,0-30h-77v-89.7
	c28.198,0.899,57.203,4.499,81.797,9.901c4.504,20.7,7.8,42.599,9.302,65.7c1.201,20.099,31.201,18.3,30-1.802
	c-1.201-19.199-3.6-37.5-6.899-54.899c50.098,16.199,85.8,41.7,95.098,70.8H407c-19.797,0-19.797,30,0,30h72.297
	C469.999,299.801,434.297,325.3,384.2,341.8z"/>
<path style="fill:#1689FC;" d="M255,1v360c7.5,0,15-5.099,15-15v-75h77c19.797,0,19.797-30,0-30h-77v-89.7
	c28.198,0.899,57.203,4.499,81.797,9.901c4.504,20.7,7.8,42.599,9.302,65.7c1.201,20.099,31.201,18.3,30-1.802
	c-1.201-19.199-3.6-37.5-6.899-54.899c50.098,16.199,85.8,41.7,95.098,70.8H407c-19.797,0-19.797,30,0,30h72.297
	c-9.298,28.801-45,54.3-95.098,70.8c3.3-17.399,5.698-35.7,6.899-54.899c1.201-19.501-28.799-22.202-30-1.802
	c-1.501,23.101-4.797,45.3-9.302,65.7c-20.398,4.501-44.598,7.8-67.698,9.3c-19.197,1.201-18.3,30,0.901,30h0.901
	c19.197-1.199,39.5-3.6,56.899-6.899c-16.498,50.4-44.001,85.8-72.8,95.099V406c0-9.901-7.5-15-15-15v120
	c140.698,0,257-114.3,257-255S395.698,1,255,1z M270,121.3V33.701c28.799,9.3,56.302,45,72.8,95.099
	C320.6,124.6,294.902,122.199,270,121.3z M376.7,136.3c-10.199-37.2-27.199-68.401-45.198-91.8c62.399,22.8,114.2,72.299,136.7,135
	C445.101,161.499,413.599,146.499,376.7,136.3z M331.501,467.5c17.999-23.399,34.999-54.6,45.198-91.8
	c37.2-10.199,68.401-25.199,91.802-43.2C445.701,394.9,393.9,444.699,331.501,467.5z"/>
<path style="fill:#FEA832;" d="M377,301c-24.814,0-45-20.186-45-45s20.186-45,45-45s45,20.186,45,45S401.814,301,377,301z"/>
<path style="fill:#CAE8F9;" d="M377,271c-8.262,0-15-6.724-15-15s6.738-15,15-15s15,6.724,15,15S385.262,271,377,271z"/>
<g>
	<path style="fill:#FFCC33;" d="M255,331c-24.902,0-45,20.099-45,45s20.098,45,45,45s45-20.099,45-45S279.902,331,255,331z"/>
	<path style="fill:#FFCC33;" d="M150,181c-24.814,0-45-20.186-45-45s20.186-45,45-45s45,20.186,45,45S174.814,181,150,181z"/>
</g>
<path style="fill:#FFFFFF;" d="M150,151c-8.262,0-15-6.724-15-15s6.738-15,15-15s15,6.724,15,15S158.262,151,150,151z"/>
<path style="fill:#FEA832;" d="M300,376c0,24.901-20.098,45-45,45v-90C279.902,331,300,351.099,300,376z"/>
<path style="fill:#FFFFFF;" d="M255,391c-8.262,0-15-6.724-15-15s6.738-15,15-15s15,6.724,15,15S263.262,391,255,391z"/>
<path style="fill:#CAE8F9;" d="M270,376c0-8.276-6.738-15-15-15v30C263.262,391,270,384.276,270,376z"/>
<g>
</g>
<g>
</g>
<g>
</g>
<g>
</g>
<g>
</g>
<g>
</g>
<g>
</g>
<g>
</g>
<g>
</g>
<g>
</g>
<g>
</g>
<g>
</g>
<g>
</g>
<g>
</g>
<g>
</g>
</svg>
